# xmcd CD database file
#
# Track frame offsets:
#	150
#	58375
#	96431
#	126917
#	157353
#	185583
#	226652
#	242215
#	270458
#	295351
#	326688
#
# Disc length: 4659 seconds
#
# Revision: 2
# Processed by: cddbd v1.5.1PL2 Copyright (c) Steve Scherf et al.
# Submitted via: CdAid (MTCDDB.DLL V2003.12.21)
#
DISCID=ac12310b
DTITLE=Wes Montgomery (1925-1968) - Smokin` At The Half Note 1965
DYEAR=2005
DGENRE=Jazz
TTITLE0=No Blues
TTITLE1=If You Could See Me Now
TTITLE2=Unit 7
TTITLE3=Four On Six
TTITLE4=What`s New?
TTITLE5=Willow Weep For Me
TTITLE6=Portrait Of Jenny
TTITLE7=Surrey With the Fringe On Top
TTITLE8=Oh, You Crazy Moon
TTITLE9=Misty
TTITLE10=Impressions
EXTD=Wes Montgomery\nSmokin' at the Half Note\nWynton Kelly (piano), Wes Montg
EXTD=omery (guitar), Paul Chambers (bass), Jimm Cobb (drums]\n\nRecorded June 
EXTD=and September 1965 in New York City and Englewood Cliffs, New Jersey.\nVe
EXTD=rve Master Edition ID3G:   8 YEAR: 2005
EXTT0=
EXTT1=
EXTT2=
EXTT3=
EXTT4=
EXTT5=
EXTT6=
EXTT7=
EXTT8=
EXTT9=
EXTT10=
PLAYORDER=
